<?xml version="1.0" encoding="UTF-8" standalone="no"?>
<!-- Created with Inkscape (http://www.inkscape.org/) -->

<svg
   width="10.583328mm"
   height="7.9375401mm"
   viewBox="0 0 10.583328 7.9375401"
   version="1.1"
   id="svg5"
   xml:space="preserve"
   inkscape:export-filename="hat.svg"
   inkscape:export-xdpi="96"
   inkscape:export-ydpi="96"
   xmlns:inkscape="http://www.inkscape.org/namespaces/inkscape"
   xmlns:sodipodi="http://sodipodi.sourceforge.net/DTD/sodipodi-0.dtd"
   xmlns="http://www.w3.org/2000/svg"
   xmlns:svg="http://www.w3.org/2000/svg"><sodipodi:namedview
     id="namedview7"
     pagecolor="#ffffff"
     bordercolor="#000000"
     borderopacity="0.25"
     inkscape:showpageshadow="2"
     inkscape:pageopacity="0.0"
     inkscape:pagecheckerboard="0"
     inkscape:deskcolor="#d1d1d1"
     inkscape:document-units="mm"
     showgrid="false" /><defs
     id="defs2" /><g
     inkscape:label="Layer 1"
     inkscape:groupmode="layer"
     id="layer1"
     style="display:inline"
     transform="translate(-93.051165,-20.813844)"><path
       style="fill:#ff0000;stroke-width:0.0370585"
       d="m 95.092946,28.699099 c -0.125351,-0.02926 -0.380413,-0.04854 -0.589332,-0.04457 l -0.368329,0.007 -0.29064,-0.165999 c -0.386487,-0.220744 -0.68367,-0.610435 -0.686745,-0.900533 -8.71e-4,-0.06767 -0.02497,-0.164975 -0.05394,-0.216242 -0.06136,-0.108646 -0.07152,-0.283698 -0.01839,-0.316924 0.02027,-0.01267 0.03719,-0.135309 0.03763,-0.272521 8.7e-4,-0.259673 0.08008,-0.501874 0.195937,-0.598929 0.03359,-0.02814 0.06109,-0.09107 0.06109,-0.13982 0,-0.108156 0.112817,-0.229017 0.238478,-0.255484 0.05116,-0.01077 0.131381,-0.02752 0.178266,-0.03721 0.08026,-0.01658 0.09016,-0.05213 0.169055,-0.605886 0.278658,-1.955944 0.641841,-2.75548 1.567557,-3.450938 1.898195,-1.426036 4.918267,-1.086767 6.105577,0.685888 0.14662,0.218923 0.16081,0.220311 0.34113,0.03338 0.14,-0.14514 0.14951,-0.148676 0.40344,-0.150185 0.14301,-8.37e-4 0.30699,-0.0034 0.36437,-0.0057 0.0736,-0.0029 0.14418,0.0354 0.23941,0.129934 0.0743,0.07375 0.16409,0.161176 0.19955,0.194286 0.0355,0.03312 0.0644,0.102074 0.0644,0.153253 0,0.05483 0.0492,0.143727 0.11971,0.216398 0.25991,0.267796 0.2774,0.310373 0.25733,0.626153 -0.0113,0.178648 -0.0375,0.304565 -0.0688,0.330811 -0.0279,0.02331 -0.0505,0.07014 -0.0505,0.104084 0,0.109937 -0.10988,0.224401 -0.25281,0.263362 -0.0991,0.02702 -0.16563,0.07873 -0.22924,0.178175 l -0.0895,0.140117 -0.38638,0.0014 c -0.30376,0.0011 -0.40623,-0.01205 -0.47924,-0.06171 -0.0547,-0.03724 -0.13221,-0.05555 -0.18876,-0.04461 -0.065,0.01258 -0.11813,-0.005 -0.16497,-0.05472 -0.0379,-0.04031 -0.12049,-0.09973 -0.18331,-0.132047 -0.23231,-0.119496 -0.26447,-0.23806 -0.2268,-0.836243 l 0.017,-0.270318 -0.13267,2.98e-4 c -0.073,1.87e-4 -0.33521,-0.01989 -0.58279,-0.04458 -0.55466,-0.05531 -0.54884,-0.06202 -0.26123,0.30186 0.12993,0.164375 0.308,0.42211 0.39572,0.572746 0.14353,0.24644 0.16944,0.272405 0.25868,0.259148 0.18294,-0.02718 0.59837,0.21281 0.71921,0.415495 0.0453,0.07607 0.1121,0.16026 0.14833,0.187074 0.0481,0.03563 0.0593,0.07546 0.0413,0.147933 -0.0161,0.06495 -0.004,0.131305 0.0357,0.192239 0.0461,0.0714 0.0545,0.139119 0.0359,0.290979 -0.0142,0.114858 -0.008,0.242012 0.015,0.30298 0.0341,0.0907 0.0247,0.128631 -0.0679,0.277456 -0.0591,0.09482 -0.11812,0.208635 -0.13121,0.252924 -0.0336,0.113654 -0.0999,0.159722 -0.30316,0.210626 -0.13488,0.03378 -0.18905,0.06914 -0.22615,0.147642 -0.0639,0.135374 -0.20594,0.226715 -0.31851,0.204932 -0.0669,-0.01296 -0.12044,0.01425 -0.20811,0.105812 -0.0649,0.06779 -0.19914,0.152781 -0.2983,0.188878 -0.0992,0.0361 -0.27374,0.145604 -0.38794,0.243347 -0.22684,0.194153 -0.414624,0.27142 -0.787743,0.324125 -0.283414,0.04003 -0.413485,0.100928 -0.566589,0.265252 -0.210157,0.225564 -0.357261,0.275467 -0.828746,0.28114 -0.402632,0.0048 -0.435421,0.01124 -0.662997,0.129179 -0.23258,0.12054 -0.251198,0.123897 -0.652321,0.117597 -0.36046,-0.0056 -0.444064,0.0054 -0.658177,0.08697 -0.273756,0.104307 -0.471285,0.112681 -0.807408,0.03423 z m 0.782816,-0.294575 c 0.198872,-0.09223 0.233241,-0.09662 0.567958,-0.07265 l 0.356283,0.02552 0.378774,-0.179234 c 0.369382,-0.174787 0.388872,-0.179572 0.785553,-0.192863 0.549121,-0.0184 0.551939,-0.01939 0.797618,-0.27832 l 0.215614,-0.227248 0.235772,0.02229 c 0.335374,0.0317 0.460235,-0.01485 0.679512,-0.25334 0.148704,-0.161732 0.218414,-0.209025 0.336264,-0.2281 0.14451,-0.02339 0.22695,-0.084 0.39775,-0.292436 0.0684,-0.08339 0.10785,-0.09897 0.22864,-0.09013 0.13399,0.0097 0.15522,-0.0022 0.25799,-0.145815 0.0895,-0.124967 0.14154,-0.161272 0.25872,-0.180239 0.16734,-0.02708 0.16757,-0.02732 0.33439,-0.339277 l 0.12387,-0.231618 -0.0776,-0.08531 c -0.0426,-0.04692 -0.0866,-0.152421 -0.098,-0.234448 -0.0751,-0.548225 -0.10709,-0.636659 -0.25882,-0.713975 -0.0633,-0.0323 -0.1676,-0.108987 -0.2316,-0.17042 -0.1101,-0.105712 -0.1236,-0.109272 -0.25178,-0.06644 -0.10657,0.0356 -0.17006,0.03544 -0.29777,-7.49e-4 -0.26798,-0.07595 -0.49725,-0.03222 -0.757103,0.144409 -0.193335,0.131415 -0.25605,0.154695 -0.416745,0.154695 -0.176672,0 -0.199995,0.01137 -0.353363,0.172291 -0.220268,0.231109 -0.397924,0.306097 -0.794278,0.335269 -0.239189,0.0176 -0.347477,0.04226 -0.401261,0.09136 -0.100242,0.09151 -0.255006,0.146787 -0.410963,0.146787 -0.07487,0 -0.170274,0.03213 -0.225162,0.07584 -0.07684,0.06119 -0.142005,0.07433 -0.337307,0.06806 -0.133987,-0.0043 -0.303733,0.01512 -0.380187,0.04351 -0.110618,0.04108 -0.162487,0.04237 -0.260449,0.0065 -0.165622,-0.06062 -0.208957,-0.05718 -0.409453,0.0326 -0.142083,0.06362 -0.193008,0.07025 -0.286428,0.03729 -0.165102,-0.05826 -0.23978,-0.04994 -0.360102,0.0401 -0.09533,0.07135 -0.137425,0.07761 -0.38131,0.05674 -0.244966,-0.02097 -0.284876,-0.01492 -0.374917,0.05677 -0.0731,0.05821 -0.173849,0.08628 -0.367018,0.10228 -0.266152,0.02204 -0.266326,0.02212 -0.474096,0.237544 -0.225158,0.233455 -0.228717,0.243944 -0.164766,0.48597 0.03864,0.146219 0.03489,0.176453 -0.03649,0.293348 -0.07901,0.12941 -0.07906,0.130792 -0.0071,0.196643 0.09812,0.08988 0.120206,0.17653 0.07541,0.295798 -0.06143,0.163538 0.145128,0.519566 0.370225,0.638155 0.05231,0.02756 0.164883,0.109115 0.250155,0.181231 l 0.155035,0.131118 0.357591,-0.02023 c 0.201523,-0.0114 0.421899,-0.0032 0.504931,0.01869 0.217061,0.05735 0.506162,0.02326 0.745981,-0.08795 z m -1.120217,-0.392862 c -0.325991,-0.03475 -0.608109,-0.126765 -0.698431,-0.227796 l -0.06842,-0.07653 0.349545,0.03146 c 0.7042,0.06339 1.223756,0.03193 2.003823,-0.12131 0.74614,-0.146577 0.79162,-0.14772 0.723123,-0.01815 -0.161882,0.306193 -1.337114,0.516001 -2.30964,0.412326 z m 8.122745,-3.70894 c 0.0419,-0.07178 0.13463,-0.158776 0.20622,-0.193332 0.0886,-0.04274 0.13015,-0.0881 0.13015,-0.141892 0,-0.04349 0.0414,-0.135919 0.0921,-0.205408 0.12809,-0.175753 0.0327,-0.505202 -0.18876,-0.65211 -0.0604,-0.04005 -0.0874,-0.0932 -0.0874,-0.17153 0,-0.320733 -0.6318,-0.543841 -0.884,-0.312173 -0.0507,0.04652 -0.1571,0.115575 -0.23658,0.153453 -0.10252,0.04886 -0.15616,0.104333 -0.18464,0.19092 -0.0221,0.06713 -0.0895,0.161823 -0.14964,0.210434 l -0.10951,0.08838 0.0618,0.131221 c 0.059,0.125231 0.0586,0.135036 -0.01,0.214731 -0.20405,0.238172 0.0992,0.703694 0.41814,0.641967 0.0496,-0.0096 0.1395,0.0083 0.19978,0.03991 0.0603,0.03155 0.14348,0.04839 0.18492,0.03742 0.0414,-0.01098 0.1227,0.006 0.1806,0.03779 0.17934,0.09836 0.29064,0.07774 0.37664,-0.06979 z"
       id="path1427" /><path
       style="fill:#ffffff;fill-opacity:1;fill-rule:evenodd;stroke-width:0.332442;stroke-linecap:round;stroke-linejoin:round;stroke-miterlimit:5"
       d="m 358.23497,107.63641 -1.88932,-0.0562 -1.07754,-0.83594 c -1.42711,-1.10711 -1.92131,-1.83811 -1.79296,-2.65203 0.0661,-0.41899 0.007,-0.74989 -0.18144,-1.01916 -0.22468,-0.32078 -0.24034,-0.4842 -0.0801,-0.83594 0.11764,-0.2582 0.15458,-0.77358 0.0902,-1.25879 -0.10519,-0.79294 -0.0822,-0.84917 0.66066,-1.613483 0.68684,-0.706714 0.87485,-0.802767 1.74757,-0.892839 0.53785,-0.05551 1.18279,-0.235169 1.4332,-0.399239 0.33353,-0.218541 0.6748,-0.273564 1.27625,-0.205772 0.52681,0.05938 1.05766,-0.0022 1.48158,-0.171788 0.36333,-0.145377 0.91513,-0.226347 1.22623,-0.179932 0.31109,0.04642 0.76196,0.0072 1.00192,-0.08721 0.23997,-0.09438 1.37311,-0.200825 2.5181,-0.236542 1.49811,-0.04673 2.36683,-0.163584 3.09844,-0.416774 0.55916,-0.193509 1.14451,-0.351835 1.30077,-0.351835 0.15627,0 0.52899,-0.148841 0.82828,-0.330758 0.29929,-0.181917 0.97611,-0.384519 1.50403,-0.450225 1.64414,-0.204631 2.1652,-0.408932 3.11864,-1.222777 0.73267,-0.625391 1.05698,-0.788577 1.56717,-0.788577 0.38457,0 0.88774,-0.164058 1.25103,-0.407896 0.95238,-0.639243 1.57899,-0.78177 3.15562,-0.717768 1.32888,0.05394 1.54287,0.113478 2.28685,0.636219 0.85252,0.599007 1.06964,1.007879 1.27933,2.409177 0.0646,0.43194 0.23426,1.03661 0.37694,1.343711 0.245,0.527323 0.23272,0.607421 -0.22079,1.440669 -0.38692,0.7109 -0.60359,0.915524 -1.11532,1.053318 -0.37159,0.10006 -0.79652,0.389341 -1.02414,0.697211 -0.29253,0.39567 -0.52843,0.52624 -0.951,0.52636 -0.42628,1.1e-4 -0.72544,0.16866 -1.23902,0.69808 -0.37238,0.38386 -0.82133,0.69793 -0.99767,0.69793 -0.17634,0 -0.72433,0.35855 -1.21774,0.79677 -1.11952,0.99429 -1.59758,1.18109 -2.66649,1.04193 -0.83204,-0.10833 -0.86296,-0.095 -1.76538,0.75842 -0.98594,0.93246 -1.1671,0.99255 -3.40872,1.13061 -1.05032,0.0647 -1.56749,0.20695 -2.61781,0.72011 -1.22844,0.60018 -1.38421,0.63368 -2.53363,0.54478 -0.99927,-0.0773 -1.47435,-0.0155 -2.58083,0.33593 -0.74587,0.23685 -1.49057,0.41397 -1.65489,0.39358 -0.16432,-0.0204 -1.14895,-0.0624 -2.18807,-0.0933 z m 4.94343,-1.79654 c 2.12369,-0.33522 3.83946,-1.07822 3.83946,-1.66266 0,-0.34789 -0.46499,-0.3207 -3.53638,0.20677 -2.32847,0.39989 -3.00956,0.44722 -5.47748,0.38065 -2.19756,-0.0593 -2.80004,-0.0283 -2.73521,0.14068 0.11162,0.29086 1.11417,0.75296 2.02253,0.93223 1.06535,0.21025 4.5611,0.21163 5.88708,0.002 z"
       id="path1604"
       transform="scale(0.26458333)" /><path
       style="fill:#ffffff;fill-opacity:1;fill-rule:evenodd;stroke-width:0.332442;stroke-linecap:round;stroke-linejoin:round;stroke-miterlimit:5"
       d="m 358.17978,107.60107 -1.94451,-0.0961 -1.07063,-0.8324 c -1.35388,-1.05262 -1.80715,-1.74732 -1.68364,-2.58038 0.0611,-0.41244 -0.002,-0.7541 -0.18729,-1.01916 -0.22468,-0.32078 -0.24034,-0.4842 -0.0801,-0.83594 0.11858,-0.26025 0.15449,-0.77424 0.0887,-1.26993 -0.10695,-0.80618 -0.0858,-0.85851 0.66435,-1.641373 0.61947,-0.646511 0.89455,-0.810185 1.37194,-0.816309 0.32841,-0.0042 0.91124,-0.134591 1.29519,-0.289729 0.38395,-0.155138 1.18824,-0.298948 1.78731,-0.319577 0.59908,-0.02063 1.32443,-0.134929 1.61189,-0.253999 0.28746,-0.11907 0.77899,-0.178251 1.09228,-0.131513 0.3133,0.04674 0.76597,0.0078 1.00593,-0.08662 0.23997,-0.09438 1.37311,-0.200825 2.5181,-0.236542 1.49811,-0.04673 2.36683,-0.163584 3.09844,-0.416774 0.55916,-0.193509 1.14451,-0.351835 1.30077,-0.351835 0.15627,0 0.52899,-0.15066 0.82828,-0.3348 0.29929,-0.18414 1.15779,-0.419646 1.90777,-0.523346 1.56371,-0.216215 1.73125,-0.289562 2.82629,-1.237311 0.61791,-0.534793 0.95138,-0.69688 1.43375,-0.69688 0.4113,0 0.93364,-0.195769 1.51121,-0.566394 0.85406,-0.548052 0.9392,-0.565654 2.62904,-0.543545 1.68637,0.02206 1.77475,0.04303 2.57123,0.610024 0.84062,0.598419 1.06491,1.010868 1.26832,2.332386 0.0591,0.383947 0.23152,0.985529 0.38317,1.336851 0.26714,0.618904 0.26067,0.666412 -0.20823,1.527928 -0.39066,0.717775 -0.60636,0.922127 -1.11905,1.06018 -0.37159,0.10006 -0.79652,0.389341 -1.02414,0.697208 -0.2807,0.37968 -0.53327,0.5262 -0.90702,0.5262 -0.36445,0 -0.73766,0.20692 -1.2591,0.69809 -0.40762,0.38394 -0.87442,0.69808 -1.03733,0.69808 -0.16291,0 -0.73951,0.38792 -1.28132,0.86206 -1.07822,0.94352 -1.65626,1.14916 -2.76349,0.98312 -0.68442,-0.10264 -0.77193,-0.0653 -1.4237,0.60724 -0.97286,1.00387 -1.18143,1.08697 -3.06035,1.21942 -1.40668,0.0992 -1.89614,0.22066 -3.12611,0.77601 -1.35457,0.6116 -1.53945,0.65086 -2.59893,0.55193 -0.93227,-0.0871 -1.39098,-0.0274 -2.5112,0.32645 -0.75382,0.23813 -1.50396,0.4173 -1.66699,0.39816 -0.16302,-0.0192 -1.17143,-0.0781 -2.2409,-0.1309 z m 6.41439,-2.05987 c 1.37867,-0.39669 2.31412,-0.91204 2.39229,-1.31792 0.077,-0.39978 -0.21991,-0.38625 -3.45561,0.15747 -2.30281,0.38696 -3.108,0.44497 -5.45381,0.39295 -1.89357,-0.042 -2.75213,-0.002 -2.75211,0.12762 3e-5,0.26287 0.67734,0.59776 1.77434,0.8773 1.36768,0.34851 5.96466,0.20289 7.4949,-0.23742 z"
       id="path1606"
       transform="scale(0.26458333)" /><path
       style="fill:#ffffff;fill-opacity:1;fill-rule:evenodd;stroke-width:0.332442;stroke-linecap:round;stroke-linejoin:round;stroke-miterlimit:5"
       d="m 358.09244,107.60139 -1.85732,-0.0964 -1.07056,-0.8324 c -1.28593,-0.99986 -1.80283,-1.75598 -1.69778,-2.4835 0.0416,-0.28796 -0.0398,-0.77267 -0.18093,-1.07714 -0.19627,-0.42354 -0.21096,-0.63873 -0.0625,-0.91604 0.1167,-0.21806 0.14909,-0.70089 0.0813,-1.21196 -0.10965,-0.82662 -0.0918,-0.87127 0.66213,-1.658143 0.61947,-0.646511 0.89455,-0.810185 1.37194,-0.816309 0.32841,-0.0042 0.91124,-0.132282 1.29519,-0.284598 0.65248,-0.258845 2.2323,-0.494938 4.42615,-0.661459 0.51465,-0.03906 1.06439,-0.123909 1.22165,-0.188546 0.15725,-0.06464 1.19181,-0.146082 2.29901,-0.180988 1.39325,-0.04392 2.35407,-0.172394 3.12049,-0.417234 0.60906,-0.194572 1.23459,-0.354285 1.39006,-0.354918 0.15547,-6.28e-4 0.51463,-0.154047 0.79812,-0.340921 0.2835,-0.186874 0.95104,-0.388882 1.48343,-0.448907 1.4963,-0.168702 2.11208,-0.412697 3.12592,-1.23862 0.65033,-0.529785 1.09908,-0.762739 1.46932,-0.762739 0.29317,0 0.97132,-0.251615 1.50701,-0.559145 0.92516,-0.531121 1.06124,-0.558363 2.71514,-0.543545 1.68566,0.0151 1.76745,0.03432 2.56599,0.602775 0.84062,0.598419 1.06491,1.010868 1.26832,2.332386 0.0591,0.383947 0.23152,0.985529 0.38317,1.336851 0.26738,0.619459 0.26092,0.66595 -0.21381,1.53818 -0.359,0.659602 -0.61578,0.924666 -0.96305,0.994122 -0.26045,0.05209 -0.73186,0.361222 -1.04758,0.686968 -0.38364,0.39581 -0.73622,0.59225 -1.06301,0.59225 -0.3306,0 -0.72901,0.2261 -1.23009,0.69809 -0.40762,0.38394 -0.87442,0.69808 -1.03733,0.69808 -0.16291,0 -0.74309,0.39106 -1.28928,0.86902 -1.05975,0.92736 -1.75121,1.16786 -2.7948,0.97209 -0.57846,-0.10853 -0.69637,-0.0511 -1.54722,0.75361 -0.98255,0.92925 -1.15435,0.98733 -3.36663,1.1381 -0.95765,0.0653 -1.60998,0.24226 -2.68981,0.72982 -1.30523,0.58933 -1.51832,0.63498 -2.52484,0.54099 -0.87481,-0.0817 -1.39208,-0.015 -2.53295,0.32646 -0.78851,0.23601 -1.59651,0.41358 -1.79556,0.39461 -0.19906,-0.019 -1.19772,-0.0779 -2.21924,-0.13089 z m 6.26947,-2.007 c 0.99156,-0.24369 2.48143,-0.87143 2.48143,-1.04553 0,-0.0382 0.0477,-0.19366 0.10594,-0.34549 0.14689,-0.38281 -0.46436,-0.36207 -2.7241,0.0924 -1.31605,0.2647 -2.83989,0.39989 -5.40981,0.47993 l -3.57768,0.11144 0.50517,0.34202 c 0.88338,0.59808 2.25597,0.79356 4.99224,0.71098 1.41837,-0.0428 3.01237,-0.19478 3.62681,-0.34579 z"
       id="path1608"
       transform="scale(0.26458333)" /><path
       style="fill:#ffffff;fill-opacity:1;fill-rule:evenodd;stroke-width:0.332442;stroke-linecap:round;stroke-linejoin:round;stroke-miterlimit:5"
       d="m 387.43683,92.070467 c -0.83727,-0.261709 -2.10213,-0.534152 -2.47988,-0.534152 -0.94624,0 -1.67713,-1.415998 -1.15907,-2.245547 0.14603,-0.233821 0.14976,-0.466678 0.0137,-0.856841 -0.14924,-0.428112 -0.13688,-0.554908 0.0615,-0.631042 0.13656,-0.0524 0.37904,-0.369474 0.53885,-0.704601 0.19187,-0.402352 0.64194,-0.826199 1.325,-1.247811 0.88044,-0.543439 1.14017,-0.624308 1.74469,-0.543225 0.88221,0.118329 1.55918,0.604168 1.7876,1.282913 0.096,0.285212 0.39052,0.77475 0.65451,1.087861 0.6674,0.791584 0.75648,1.302013 0.37828,2.167519 -0.33411,0.764609 -1.86238,2.398852 -2.22107,2.37508 -0.11434,-0.0076 -0.40422,-0.07515 -0.64419,-0.150154 z"
       id="path1610"
       transform="scale(0.26458333)" /></g></svg>
