<?xml version="1.0" encoding="UTF-8" standalone="no"?>
<!-- Created with Inkscape (http://www.inkscape.org/) -->

<svg
   width="8.0193405mm"
   height="9.0779877mm"
   viewBox="0 0 8.0193405 9.0779877"
   version="1.1"
   id="svg5"
   xml:space="preserve"
   inkscape:export-filename="snow.svg"
   inkscape:export-xdpi="96"
   inkscape:export-ydpi="96"
   xmlns:inkscape="http://www.inkscape.org/namespaces/inkscape"
   xmlns:sodipodi="http://sodipodi.sourceforge.net/DTD/sodipodi-0.dtd"
   xmlns="http://www.w3.org/2000/svg"
   xmlns:svg="http://www.w3.org/2000/svg"><sodipodi:namedview
     id="namedview7"
     pagecolor="#ffffff"
     bordercolor="#000000"
     borderopacity="0.25"
     inkscape:showpageshadow="2"
     inkscape:pageopacity="0.0"
     inkscape:pagecheckerboard="0"
     inkscape:deskcolor="#d1d1d1"
     inkscape:document-units="mm"
     showgrid="false"
     inkscape:zoom="1.0129245"
     inkscape:cx="363.79809"
     inkscape:cy="394.40254"
     inkscape:window-width="1920"
     inkscape:window-height="991"
     inkscape:window-x="-9"
     inkscape:window-y="-9"
     inkscape:window-maximized="1"
     inkscape:current-layer="layer3" /><defs
     id="defs2" /><g
     inkscape:label="Layer 1"
     inkscape:groupmode="layer"
     id="layer1"
     style="display:inline"
     transform="translate(-94.523226,-64.636107)"><path
       style="fill:#07d3f6;fill-opacity:1;stroke:#000000;stroke-width:0.264583;stroke-dasharray:none;stroke-opacity:1"
       d="m 98.418353,73.558401 c -0.09992,-0.04252 -0.161122,-0.09866 -0.222903,-0.204429 l -0.02888,-0.04945 -0.0045,-0.486254 -0.0045,-0.486253 -0.0387,-0.0247 -0.03871,-0.02469 -0.05141,0.02371 c -0.02827,0.01304 -0.09392,0.04759 -0.145877,0.07678 -0.229989,0.129193 -0.305658,0.157783 -0.397853,0.150319 -0.229097,-0.01854 -0.364481,-0.277319 -0.261385,-0.499616 0.04313,-0.09297 0.07722,-0.119462 0.377937,-0.293705 0.561856,-0.32554 0.547923,-0.306138 0.538659,-0.750149 -0.0068,-0.322721 -0.0057,-0.322391 -0.340865,-0.108799 -0.355021,0.226242 -0.343148,0.233966 -0.360847,-0.234704 -0.01309,-0.346608 -0.01058,-0.344882 -0.277843,-0.19116 -0.385831,0.22192 -0.371907,0.191913 -0.379248,0.817343 l -0.0049,0.41357 -0.03191,0.05844 c -0.144889,0.265314 -0.46529,0.288909 -0.590741,0.0435 -0.02974,-0.05818 -0.03592,-0.106471 -0.04386,-0.342657 -0.01288,-0.382966 0.01147,-0.378045 -0.48717,-0.09844 -0.449624,0.252119 -0.512918,0.275836 -0.642969,0.240918 -0.256878,-0.06897 -0.375376,-0.256437 -0.305282,-0.482964 0.04185,-0.135253 0.07675,-0.162534 0.543891,-0.425264 0.508172,-0.285803 0.504663,-0.276203 0.166413,-0.455338 -0.273423,-0.144803 -0.313491,-0.192903 -0.313491,-0.376345 0,-0.164707 0.06873,-0.274374 0.216085,-0.344774 0.149871,-0.0716 0.211725,-0.05019 0.691873,0.239521 l 0.292904,0.176733 0.121588,-9e-6 0.12159,-9e-6 0.258072,-0.156029 c 0.14194,-0.08582 0.259314,-0.159781 0.26083,-0.164367 0.0016,-0.0046 -0.08855,-0.06241 -0.200134,-0.12851 -0.480471,-0.284579 -0.477422,-0.274813 -0.150351,-0.481692 0.300576,-0.190121 0.308391,-0.221336 0.08856,-0.353711 -0.39531,-0.238036 -0.406293,-0.238401 -0.772275,-0.02562 -0.09409,0.0547 -0.228715,0.133011 -0.299176,0.174024 -0.370459,0.215616 -0.645198,0.121479 -0.646917,-0.221664 -8.33e-4,-0.166356 0.04896,-0.240049 0.237314,-0.351202 0.416158,-0.245589 0.423244,-0.216484 -0.127368,-0.52316 -0.421117,-0.234554 -0.4571,-0.2645 -0.494484,-0.411525 -0.06378,-0.250793 0.120487,-0.488323 0.37961,-0.489366 0.102405,-4.12e-4 0.107416,0.002 0.601683,0.289399 0.429353,0.249655 0.414298,0.25447 0.424409,-0.135723 0.0081,-0.316184 0.01573,-0.34616 0.109489,-0.435602 0.135153,-0.128925 0.321226,-0.116113 0.468316,0.03224 0.09796,0.09881 0.09258,0.06904 0.09979,0.552298 0.0094,0.630564 0.0069,0.62331 0.271403,0.782068 0.393144,0.235961 0.410705,0.229935 0.407297,-0.139751 -0.0038,-0.413156 0.0061,-0.41854 0.391253,-0.212249 0.206057,0.110373 0.224791,0.116838 0.273859,0.09452 l 0.03389,-0.01541 0.0059,-0.221789 c 0.01129,-0.428395 0.0015,-0.448821 -0.303978,-0.630755 -0.575328,-0.34271 -0.570512,-0.339307 -0.613466,-0.433453 -0.07097,-0.155548 -0.0169,-0.353386 0.122156,-0.44705 0.135032,-0.09095 0.236559,-0.07156 0.55016,0.105021 0.173797,0.09787 0.186562,0.101777 0.232385,0.07119 l 0.0338,-0.02256 0.0046,-0.485359 0.0046,-0.48536 0.02926,-0.0516 c 0.168142,-0.296413 0.496776,-0.305841 0.671517,-0.01926 l 0.03939,0.06459 0.0078,0.476966 c 0.01034,0.638761 -0.01048,0.611179 0.320403,0.424498 0.211539,-0.11935 0.235102,-0.12745 0.353927,-0.121666 0.196527,0.0096 0.322863,0.144284 0.322637,0.344034 -2.06e-4,0.181654 -0.0078,0.189266 -0.530267,0.499376 -0.256545,0.152414 -0.347361,0.215147 -0.397996,0.274927 l -0.04075,0.04811 -0.0013,0.290359 c -0.0018,0.420071 -0.01269,0.415051 0.379332,0.174902 0.274128,-0.167928 0.273887,-0.16813 0.283178,0.239484 0.0099,0.432654 0.0057,0.431064 0.458443,0.174282 0.23877,-0.135417 0.24055,-0.141488 0.25113,-0.859241 l 0.006,-0.41649 0.0228,-0.02855 c 0.11058,-0.13889 0.20368,-0.176104 0.37836,-0.151246 0.22447,0.03195 0.27456,0.116162 0.28424,0.477831 0.0112,0.418583 -0.0335,0.414515 0.62874,0.05728 0.3113,-0.167938 0.35547,-0.183823 0.45862,-0.164959 0.19884,0.03636 0.33194,0.209909 0.31707,0.413367 -0.013,0.179052 -0.0726,0.236695 -0.50091,0.485269 -0.5193,0.301385 -0.51285,0.286076 -0.19935,0.473684 0.27059,0.161922 0.31312,0.215871 0.31452,0.398811 9.8e-4,0.19379 -0.12103,0.329332 -0.30663,0.339291 -0.0906,0.0048 -0.11298,-0.006 -0.59106,-0.287722 -0.40459,-0.238376 -0.41193,-0.238924 -0.70164,-0.05246 -0.37378,0.2406 -0.37313,0.235495 -0.0573,0.446529 0.31649,0.211446 0.31639,0.21428 -0.0158,0.417433 -0.32117,0.196401 -0.31691,0.210236 0.13178,0.428263 0.24711,0.12007 0.23785,0.122048 0.74307,-0.158548 0.46908,-0.260511 0.57788,-0.269029 0.71963,-0.05634 0.14864,0.223048 0.077,0.407849 -0.22903,0.59065 -0.21463,0.128202 -0.24232,0.159184 -0.20501,0.229481 0.01,0.01851 -2.7e-4,0.01198 0.37898,0.245292 0.43827,0.269618 0.46193,0.29248 0.48643,0.470132 0.0359,0.260556 -0.17756,0.457684 -0.45384,0.419066 -0.0803,-0.01123 -0.13397,-0.03647 -0.38469,-0.181088 -0.54813,-0.316168 -0.52309,-0.319318 -0.53496,0.06731 -0.0127,0.41164 -0.18869,0.587195 -0.4745,0.473191 -0.18853,-0.07519 -0.2074,-0.141286 -0.21905,-0.767463 l -0.007,-0.393171 -0.0336,-0.04909 c -0.0536,-0.07843 -0.19672,-0.175493 -0.452598,-0.306819 -0.195356,-0.100265 -0.198915,-0.09577 -0.212263,0.268084 -0.01363,0.371606 -0.0075,0.36856 -0.340414,0.16713 -0.343553,-0.207824 -0.345696,-0.205411 -0.322326,0.362918 l 0.0058,0.141376 0.04279,0.04842 c 0.05505,0.06229 0.145793,0.124055 0.431333,0.293556 0.389721,0.231347 0.411217,0.24934 0.450696,0.377282 0.0763,0.247255 -0.08131,0.463141 -0.326829,0.447691 -0.08688,-0.0054 -0.110507,-0.01539 -0.33898,-0.142319 -0.197958,-0.109978 -0.203984,-0.112 -0.250472,-0.08404 l -0.03531,0.02123 -0.0064,0.488055 -0.0064,0.488055 -0.03686,0.06293 c -0.10305,0.175947 -0.296291,0.257472 -0.452604,0.190943 z"
       id="path3609" /></g></svg>
